<svg xmlns="http://www.w3.org/2000/svg" width="21" height="21" viewBox="0 0 21 21">
    <defs>
        <clipPath id="a">
            <path data-name="사각형 41" style="fill:none" d="M0 0h18v18H0z"/>
        </clipPath>
    </defs>
    <g data-name="그룹 24" style="clip-path:url(#a)" transform="translate(2 2)">
        <path data-name="패스 45" d="M15 16H3a1 1 0 0 1-1-1V3a1 1 0 0 1 1-1h5a1 1 0 0 0 0-2H2a2 2 0 0 0-2 2v14a2.006 2.006 0 0 0 2 2h14a2.006 2.006 0 0 0 2-2v-6a1 1 0 0 0-2 0v5a1 1 0 0 1-1 1M11 1a1 1 0 0 0 1 1h2.59l-9.13 9.13a1 1 0 1 0 1.41 1.41L16 3.41V6a1 1 0 0 0 2 0V1a1 1 0 0 0-1-1h-5a1 1 0 0 0-1 1"/>
    </g>
</svg>
