<?xml version="1.0" encoding="UTF-8"?>
<svg width="48px" height="48px" viewBox="0 0 48 48" version="1.1" xmlns="http://www.w3.org/2000/svg" xmlns:xlink="http://www.w3.org/1999/xlink">
    <title>Group 6</title>
    <g id="03-ìš°ë¦¬ë§¤ìž¥ë¶ˆëŸ¬ì˜¤ê¸°" stroke="none" stroke-width="1" fill="none" fill-rule="evenodd">
        <g id="3_ì—°ë™ì •ë³´_1-4_ìš°ë¦¬ë§¤ìž¥ë¶ˆëŸ¬ì˜¤ê¸°_ì—´ë¦¼" transform="translate(-128.000000, -1507.000000)" fill="#BEBEBE">
            <g id="ë°°ë¯¼" transform="translate(0.000000, 548.000000)">
                <g id="Group-2" transform="translate(64.000000, 152.000000)">
                    <g id="Group-6" transform="translate(64.000000, 807.000000)">
                        <path d="M24,48 C37.254834,48 48,37.254834 48,24 C48,10.745166 37.254834,0 24,0 C10.745166,0 0,10.745166 0,24 C0,37.254834 10.745166,48 24,48 Z M23.6666667,37.3333333 C22.1939073,37.3333333 21,36.139426 21,34.6666667 C21,33.1939073 22.1939073,32 23.6666667,32 C25.139426,32 26.3333333,33.1939073 26.3333333,34.6666667 C26.3333333,36.139426 25.139426,37.3333333 23.6666667,37.3333333 Z M21,11 L26.3333333,11 L26.3333333,29.6666667 L21,29.6666667 L21,11 Z" id="ðŸ”¹-Icon-Color"></path>
                    </g>
                </g>
            </g>
        </g>
    </g>
</svg>