<svg xmlns="http://www.w3.org/2000/svg" width="15" height="15" viewBox="0 0 15 15">
    <g transform="translate(-255 -531)">
        <circle data-name="타원 9" cx="7.5" cy="7.5" r="7.5" transform="translate(255 531)" style="fill:#0f0f0f"/>
        <path data-name="패스 124" d="M3.124 1.972a.972.972 0 0 0-1.078-1A1.835 1.835 0 0 0 .715 1.6L0 .991A2.952 2.952 0 0 1 2.189 0c1.287 0 2.168.682 2.168 1.889 0 1.507-1.959 2.065-1.772 3.6H1.474c-.264-1.734 1.65-2.4 1.65-3.52M1.2 7.226a.82.82 0 0 1 .847-.846.826.826 0 0 1 .847.846.816.816 0 0 1-.847.826.809.809 0 0 1-.847-.826" transform="translate(260.322 534.474)" style="fill:#fff"/>
    </g>
</svg>
