<?xml version="1.0" encoding="UTF-8"?>
<svg width="76px" height="60px" viewBox="0 0 76 60" version="1.1" xmlns="http://www.w3.org/2000/svg" xmlns:xlink="http://www.w3.org/1999/xlink">
    <!-- Generator: Sketch 63.1 (92452) - https://sketch.com -->
    <title>Group 19</title>
    <desc>Created with Sketch.</desc>
    <g id="06-설정" stroke="none" stroke-width="1" fill="none" fill-rule="evenodd">
        <g id="6_설정_1_" transform="translate(-74.000000, -1182.000000)">
            <g id="배달의민족-copy-3" transform="translate(0.000000, 1100.000000)">
                <g id="Group-19" transform="translate(76.000000, 84.000000)">
                    <path d="M0,33.1703433 C0,22.7422488 11.2694173,14.2904693 25.1750551,14.2904693 C39.0784252,14.2904693 50.3478425,22.7422488 50.3478425,33.1703433 C50.3478425,43.5984378 39.0784252,52.0513512 25.1750551,52.0513512 C23.8098898,52.0513512 22.4730709,51.9663118 21.1668661,51.8098394 C20.4990236,52.8575244 17.5611969,56.6457449 10.3577953,55.7919496 C10.3577953,55.7919496 13.2366614,53.0990362 13.6618583,49.9593827 C5.55137008,46.8242646 0,40.484863 0,33.1703433 Z" id="Stroke-1" stroke="#424242" stroke-width="4" fill="#FFFFFF" stroke-linecap="round" stroke-linejoin="round"></path>
                    <path d="M34.9514079,33.6199181 C34.9514079,34.9215874 36.0092976,35.980611 37.3109669,35.980611 C38.6149039,35.980611 39.6716598,34.9215874 39.6716598,33.6199181 C39.6716598,32.3182488 38.6149039,31.2592252 37.3109669,31.2592252 C36.0092976,31.2592252 34.9514079,32.3182488 34.9514079,33.6199181" id="Fill-3" fill="#3A3A3A"></path>
                    <path d="M22.8144756,33.8318894 C22.8144756,35.2504382 23.9661197,36.4045537 25.3871398,36.4045537 C26.8056886,36.4045537 27.9573327,35.2504382 27.9573327,33.8318894 C27.9573327,32.4133407 26.8056886,31.2592252 25.3871398,31.2592252 C23.9661197,31.2592252 22.8144756,32.4133407 22.8144756,33.8318894" id="Fill-5" fill="#424242"></path>
                    <path d="M10.6764094,33.8306538 C10.6764094,35.2485212 11.8275004,36.4020823 13.247838,36.4020823 C14.6681756,36.4020823 15.8192666,35.2485212 15.8192666,33.8306538 C15.8192666,32.4127863 14.6681756,31.2592252 13.247838,31.2592252 C11.8275004,31.2592252 10.6764094,32.4127863 10.6764094,33.8306538" id="Fill-7" fill="#424242"></path>
                    <path d="M71.7188031,18.8802142 C71.7188031,8.45211969 60.4493858,0.00034015748 46.543748,0.00034015748 C32.640378,0.00034015748 21.3698268,8.45211969 21.3698268,18.8802142 C21.3698268,29.3083087 32.640378,37.761222 46.543748,37.761222 C47.9077795,37.761222 49.2457323,37.6773165 50.5508031,37.5197102 C51.2186457,38.5685291 54.1576063,42.3567496 61.3610079,41.5040882 C61.3610079,41.5040882 58.4821417,38.8089071 58.0569449,35.6692535 C66.1674331,32.5341354 71.7188031,26.1958677 71.7188031,18.8802142" id="Fill-9" fill="#FFFFFF"></path>
                    <path d="M71.7188031,18.8802142 C71.7188031,8.45211969 60.4493858,0.00034015748 46.543748,0.00034015748 C32.640378,0.00034015748 21.3698268,8.45211969 21.3698268,18.8802142 C21.3698268,29.3083087 32.640378,37.761222 46.543748,37.761222 C47.9077795,37.761222 49.2457323,37.6773165 50.5508031,37.5197102 C51.2186457,38.5685291 54.1576063,42.3567496 61.3610079,41.5040882 C61.3610079,41.5040882 58.4821417,38.8089071 58.0569449,35.6692535 C66.1674331,32.5341354 71.7188031,26.1958677 71.7188031,18.8802142 Z" id="Stroke-11" stroke="#424242" stroke-width="4" stroke-linecap="round" stroke-linejoin="round"></path>
                    <path d="M37.1900004,19.5411423 C37.1900004,20.9605857 36.0373976,22.1131886 34.6167188,22.1131886 C33.1985108,22.1131886 32.0471433,20.9605857 32.0471433,19.5411423 C32.0471433,18.1216989 33.1985108,16.9690961 34.6167188,16.9690961 C36.0373976,16.9690961 37.1900004,18.1216989 37.1900004,19.5411423" id="Fill-13" fill="#424242"></path>
                    <path d="M49.3280666,19.5417603 C49.3280666,20.9615447 48.1764225,22.1144245 46.7554024,22.1144245 C45.3368536,22.1144245 44.1852094,20.9615447 44.1852094,19.5417603 C44.1852094,18.1219759 45.3368536,16.9690961 46.7554024,16.9690961 C48.1764225,16.9690961 49.3280666,18.1219759 49.3280666,19.5417603" id="Fill-15" fill="#424242"></path>
                    <path d="M61.463865,19.5405246 C61.463865,20.9596271 60.312774,22.1119532 58.8924364,22.1119532 C57.4720989,22.1119532 56.3210079,20.9596271 56.3210079,19.5405246 C56.3210079,18.1214221 57.4720989,16.9690961 58.8924364,16.9690961 C60.312774,16.9690961 61.463865,18.1214221 61.463865,19.5405246" id="Fill-17" fill="#424242"></path>
                </g>
            </g>
        </g>
    </g>
</svg>