<?xml version="1.0" encoding="UTF-8"?>
<svg width="67px" height="76px" viewBox="0 0 67 76" version="1.1" xmlns="http://www.w3.org/2000/svg" xmlns:xlink="http://www.w3.org/1999/xlink">
    <!-- Generator: Sketch 63.1 (92452) - https://sketch.com -->
    <title>Group 9</title>
    <desc>Created with Sketch.</desc>
    <g id="06-설정" stroke="none" stroke-width="1" fill="none" fill-rule="evenodd">
        <g id="6_설정_1_" transform="translate(-79.000000, -514.000000)">
            <g id="배달의민족-copy" transform="translate(-87.000000, 440.000000)">
                <g id="notifications_active" transform="translate(151.000000, 64.000000)">
                    <g id="Outlined-/-Social-/-notifications_active">
                        <g id="Group-9" transform="translate(17.000000, 12.000000)">
                            <path d="M42.2549077,60.6683538 C42.2549077,66.7034308 37.3602923,71.5980462 31.3284462,71.5980462 C25.2933692,71.5980462 20.3987538,66.7034308 20.3987538,60.6683538 C20.3987538,54.6365077 25.2933692,49.7418923 31.3284462,49.7418923 C37.3602923,49.7418923 42.2549077,54.6365077 42.2549077,60.6683538" id="Fill-1" fill="#FFFFFF"></path>
                            <path d="M42.2549077,60.6683538 C42.2549077,66.7034308 37.3602923,71.5980462 31.3284462,71.5980462 C25.2933692,71.5980462 20.3987538,66.7034308 20.3987538,60.6683538 C20.3987538,54.6365077 25.2933692,49.7418923 31.3284462,49.7418923 C37.3602923,49.7418923 42.2549077,54.6365077 42.2549077,60.6683538 Z" id="Stroke-3" stroke="#424242" stroke-width="4" stroke-linecap="round" stroke-linejoin="round"></path>
                            <path d="M62.6552769,60.6683538 C58.8429692,50.1522 56.7882,39.0803538 56.5588154,27.8986615 L56.5038923,25.1783538 C56.5038923,11.2731231 45.2285077,0.000969230769 31.3297385,0.000969230769 C17.4212769,0.000969230769 6.15235385,11.2731231 6.15235385,25.1783538 L6.09743077,27.8954308 C5.87127692,39.0803538 3.81004615,50.1522 -0.00226153846,60.6683538 L62.6552769,60.6683538 Z" id="Fill-5" fill="#FFFFFF"></path>
                            <path d="M62.6552769,60.6683538 C58.8429692,50.1522 56.7882,39.0803538 56.5588154,27.8986615 L56.5038923,25.1783538 C56.5038923,11.2731231 45.2285077,0.000969230769 31.3297385,0.000969230769 C17.4212769,0.000969230769 6.15235385,11.2731231 6.15235385,25.1783538 L6.09743077,27.8954308 C5.87127692,39.0803538 3.81004615,50.1522 -0.00226153846,60.6683538 L62.6552769,60.6683538 Z" id="Stroke-7" stroke="#424242" stroke-width="4" stroke-linecap="round" stroke-linejoin="round"></path>
                        </g>
                    </g>
                </g>
            </g>
        </g>
    </g>
</svg>