<?xml version="1.0" encoding="UTF-8"?>
<svg width="75px" height="74px" viewBox="0 0 75 74" version="1.1" xmlns="http://www.w3.org/2000/svg" xmlns:xlink="http://www.w3.org/1999/xlink">
    <!-- Generator: Sketch 63.1 (92452) - https://sketch.com -->
    <title>Group 11</title>
    <desc>Created with Sketch.</desc>
    <g id="06-설정" stroke="none" stroke-width="1" fill="none" fill-rule="evenodd">
        <g id="6_설정_1_" transform="translate(-74.000000, -735.000000)">
            <g id="배달의민족-copy-4" transform="translate(-87.000000, 660.000000)">
                <g id="Group-11" transform="translate(163.000000, 77.000000)">
                    <polygon id="Fill-1" fill="#FFFFFF" points="0.00259459459 69.7634595 54.1647568 69.7634595 54.1647568 0 0.00259459459 0"></polygon>
                    <polygon id="Stroke-2" stroke="#000000" stroke-width="4" stroke-linejoin="bevel" points="0 69.7634595 54.1621622 69.7634595 54.1621622 0 0 0"></polygon>
                    <line x1="11.1188757" y1="12.1110486" x2="43.0453622" y2="12.1110486" id="Stroke-4" stroke="#000000" stroke-width="4" stroke-linejoin="bevel"></line>
                    <line x1="11.1188757" y1="21.7294703" x2="43.0453622" y2="21.7294703" id="Stroke-5" stroke="#000000" stroke-width="4" stroke-linejoin="bevel"></line>
                    <line x1="11.1188757" y1="31.3476324" x2="43.0453622" y2="31.3476324" id="Stroke-6" stroke="#000000" stroke-width="4" stroke-linejoin="bevel"></line>
                    <line x1="28.8882162" y1="57.4152649" x2="43.0443243" y2="57.4152649" id="Stroke-7" stroke="#000000" stroke-width="4" stroke-linejoin="bevel"></line>
                    <polygon id="Fill-8" fill="#FFFFFF" points="39.8132757 42.9919135 38.7572757 49.5821838 45.3475459 48.5261838 71.3739243 22.4998054 65.8396541 16.9655351"></polygon>
                    <polygon id="Stroke-9" stroke="#000000" stroke-width="4" stroke-linejoin="bevel" points="45.3478054 48.5267027 38.7575351 49.5827027 39.8135351 42.9924324 65.8399135 16.9634595 71.3741838 22.5003243"></polygon>
                </g>
            </g>
        </g>
    </g>
</svg>