<?xml version="1.0" encoding="UTF-8"?>
<svg width="64px" height="56px" viewBox="0 0 64 56" version="1.1" xmlns="http://www.w3.org/2000/svg" xmlns:xlink="http://www.w3.org/1999/xlink">
    <title>ðŸŽ¨ Icon color</title>
    <g id="ìš°ë¦¬ì¹´ë“œ" stroke="none" stroke-width="1" fill="none" fill-rule="evenodd">
        <g id="1_á„ƒá…¢á„‰á…µá„‡á…©á„ƒá…³_1-2_á„á…¦á†·á„‘á…³á†¯á„…á…µá†º_á„’á…¡á„‚á…¡á„‹á…§á†«á„ƒá…©á†¼" transform="translate(-64.000000, -260.000000)" fill="#FFFFFF">
            <path d="M124,284 L76.54,284 L91.072,266.56 C92.488,264.864 92.256,262.34 90.56,260.928 C88.86,259.512 86.34,259.744 84.928,261.44 L64.928,285.44 C64.772,285.628 64.692,285.848 64.576,286.056 C64.48,286.224 64.364,286.368 64.292,286.552 C64.112,287.012 64.004,287.496 64.004,287.984 C64.004,287.988 64,287.996 64,288 C64,288.004 64.004,288.012 64.004,288.016 C64.004,288.504 64.112,288.988 64.292,289.448 C64.364,289.632 64.48,289.776 64.576,289.944 C64.692,290.152 64.772,290.372 64.928,290.56 L84.928,314.56 C85.72,315.508 86.856,316 88,316 C88.904,316 89.812,315.696 90.56,315.072 C92.256,313.66 92.488,311.136 91.072,309.44 L76.54,292 L124,292 C126.208,292 128,290.208 128,288 C128,285.792 126.208,284 124,284" id="ðŸŽ¨-Icon-color"></path>
        </g>
    </g>
</svg>