<svg xmlns="http://www.w3.org/2000/svg" width="68" height="60" viewBox="0 0 68 60">
    <defs>
        <style>
            .cls-2{fill:#97d2ec}.cls-11,.cls-3{fill:none;stroke:#0074db;stroke-width:1.4px}.cls-4{fill:#fff}.cls-11{stroke-linejoin:round}.cls-10{fill:#a9d1ea}
        </style>
    </defs>
    <g id="ico_car_big" transform="translate(-154 -304)">
        <g id="그룹_6" data-name="그룹 6" transform="translate(156 309)">
            <g id="그룹_15" data-name="그룹 15">
                <path id="패스_19" data-name="패스 19" class="cls-2" d="M70 45.5a7.262 7.262 0 0 0-7.259 7.262c0 .093.011.184.012.276a7.253 7.253 0 0 0 14.5 0c0-.092.016-.183.016-.276A7.263 7.263 0 0 0 70 45.5" transform="translate(-20.025 -14.522)"/>
                <path id="패스_20" data-name="패스 20" class="cls-3" d="M70 45.5a7.262 7.262 0 0 0-7.259 7.262c0 .093.011.184.012.276a7.253 7.253 0 0 0 14.5 0c0-.092.016-.183.016-.276A7.263 7.263 0 0 0 70 45.5z" transform="translate(-20.025 -14.522)"/>
                <path id="패스_21" data-name="패스 21" class="cls-4" d="M72.021 57.742a2.944 2.944 0 0 1-2.947-2.842c0-.057-.005-.124-.008-.19a2.958 2.958 0 0 1 5.913 0c0 .073-.008.137-.009.2a2.941 2.941 0 0 1-2.949 2.831" transform="translate(-22.042 -16.54)"/>
                <path id="패스_22" data-name="패스 22" d="M72.021 57.742a2.944 2.944 0 0 1-2.947-2.842c0-.057-.005-.124-.008-.19a2.958 2.958 0 0 1 5.913 0c0 .073-.008.137-.009.2a2.941 2.941 0 0 1-2.949 2.832z" transform="translate(-22.042 -16.54)" style="stroke:#a1ccf3;fill:none"/>
                <path id="패스_23" data-name="패스 23" class="cls-2" d="M21.485 45.5a7.262 7.262 0 0 0-7.26 7.262c0 .093.01.184.014.276a7.252 7.252 0 0 0 14.494 0c0-.092.014-.183.014-.276a7.263 7.263 0 0 0-7.262-7.262" transform="translate(-4.54 -14.522)"/>
                <path id="패스_24" data-name="패스 24" class="cls-3" d="M21.485 45.5a7.262 7.262 0 0 0-7.26 7.262c0 .093.01.184.014.276a7.252 7.252 0 0 0 14.494 0c0-.092.014-.183.014-.276a7.263 7.263 0 0 0-7.262-7.262z" transform="translate(-4.54 -14.522)"/>
                <path id="패스_25" data-name="패스 25" class="cls-4" d="M23.5 57.742a2.943 2.943 0 0 1-2.944-2.842c0-.058-.005-.125-.01-.191a2.958 2.958 0 0 1 5.915 0c0 .073-.008.137-.011.2a2.939 2.939 0 0 1-2.95 2.833" transform="translate(-6.557 -16.54)"/>
                <path id="패스_26" data-name="패스 26" d="M23.5 57.742a2.943 2.943 0 0 1-2.944-2.842c0-.058-.005-.125-.01-.191a2.958 2.958 0 0 1 5.915 0c0 .073-.008.137-.011.2a2.939 2.939 0 0 1-2.95 2.833z" transform="translate(-6.557 -16.54)" style="stroke:#a9d1ea;fill:none"/>
                <path id="패스_27" data-name="패스 27" class="cls-4" d="m60.493 27.546-4.869-8.834a6.368 6.368 0 0 0-5.04-2.975h-9.87v11.809z" transform="translate(-12.994 -5.022)"/>
                <path id="패스_28" data-name="패스 28" class="cls-3" d="m60.493 27.546-4.869-8.834a6.368 6.368 0 0 0-5.04-2.975h-9.87v11.809z" transform="translate(-12.994 -5.022)"/>
                <path id="패스_29" data-name="패스 29" d="M4.3 37.76v5.781h6.771c0-.046-.005-.093-.008-.138s-.006-.091-.006-.138a7.261 7.261 0 0 1 14.523 0c0 .047 0 .093-.005.138s-.006.092-.009.138h18.54c0-.046 0-.093-.007-.138a1.324 1.324 0 0 1-.006-.138 7.261 7.261 0 0 1 14.523 0c0 .047 0 .093-.007.138s-.006.092-.007.138h3.843V32.984a5.437 5.437 0 0 0-5.438-5.437H29.093v-11.81h-5.068A5.394 5.394 0 0 0 19.38 18.9l-1.7 4.323-1.7 4.323H4.3V37.76z" transform="translate(-1.373 -5.022)" style="fill:#cbe3f2"/>
                <path id="패스_30" data-name="패스 30" class="cls-3" d="M4.3 37.76v5.781h6.771c0-.046-.005-.093-.008-.138s-.006-.091-.006-.138a7.261 7.261 0 0 1 14.523 0c0 .047 0 .093-.005.138s-.006.092-.009.138h18.54c0-.046 0-.093-.007-.138a1.324 1.324 0 0 1-.006-.138 7.261 7.261 0 0 1 14.523 0c0 .047 0 .093-.007.138s-.006.092-.007.138h3.843V32.984a5.437 5.437 0 0 0-5.438-5.437H29.093v-11.81h-5.068A5.394 5.394 0 0 0 19.38 18.9l-1.7 4.323-1.7 4.323H4.3V37.76z" transform="translate(-1.373 -5.022)"/>
                <path id="패스_31" data-name="패스 31" class="cls-4" d="M48.717 41.407a1.366 1.366 0 0 1-1.366 1.365h-4.289a1.365 1.365 0 1 1 0-2.73h4.289a1.366 1.366 0 0 1 1.366 1.365" transform="translate(-13.307 -12.779)"/>
                <path id="패스_32" data-name="패스 32" d="M48.717 41.407a1.366 1.366 0 0 1-1.366 1.365h-4.289a1.365 1.365 0 1 1 0-2.73h4.289a1.366 1.366 0 0 1 1.366 1.365z" transform="translate(-13.307 -12.779)" style="stroke-linejoin:round;stroke:#97d2ec;stroke-linecap:round;stroke-width:1.2px;fill:none"/>
                <path id="선_1" data-name="선 1" class="cls-4" transform="translate(0 45.504)" d="M0 0h64"/>
                <path id="선_2" data-name="선 2" transform="translate(0 45.504)" style="stroke:#2f4382;stroke-width:1.4px;fill:none" d="M0 0h64"/>
                <path id="패스_33" data-name="패스 33" class="cls-10" d="M73.485 13.044A1.684 1.684 0 1 1 71.8 11.36a1.684 1.684 0 0 1 1.685 1.684" transform="translate(-22.378 -3.625)"/>
                <path id="패스_34" data-name="패스 34" class="cls-10" d="M16.485 24.044A1.684 1.684 0 1 1 14.8 22.36a1.684 1.684 0 0 1 1.685 1.684" transform="translate(-4.186 -7.136)"/>
                <path id="선_3" data-name="선 3" class="cls-11" transform="translate(15.526)" d="M0 0v5.106"/>
                <path id="선_4" data-name="선 4" class="cls-11" transform="translate(12.973 2.553)" d="M0 0h5.106"/>
            </g>
        </g>
    </g>
</svg>
