<svg xmlns="http://www.w3.org/2000/svg" width="51" height="51" viewBox="0 0 51 51">
    <defs>
        <style>
            .cls-2,.cls-3{fill:none;stroke:#333}.cls-2{stroke-linecap:round;stroke-linejoin:round;stroke-width:1.5px}.cls-3{stroke-miterlimit:10}
        </style>
    </defs>
    <g id="ico_op_leather_on" transform="translate(15.19 6.646)">
        <g id="그룹_122" data-name="그룹 122" transform="translate(-6.57 3.176)">
            <path id="패스_203" data-name="패스 203" class="cls-2" d="M16.858.75h-3.114c-2.768 8.542-9.465 4.692-9.465 4.692L.75 10.335s5.709 4 6.189 8.275" transform="translate(0 -2)"/>
            <path id="패스_204" data-name="패스 204" class="cls-2" d="M7.181 20.592s1.016 5.08-4.01 9.3l4.095 4.812s5.263-4.652 9.835.856" transform="translate(-.242 -3.982)"/>
            <path id="패스_205" data-name="패스 205" class="cls-2" d="M18.694.75h3.114c2.768 8.542 9.465 4.692 9.465 4.692l3.527 4.893s-5.709 4-6.189 8.275" transform="translate(-1.792 -2)"/>
            <path id="패스_206" data-name="패스 206" class="cls-2" d="M28.612 20.592s-1.016 5.08 4.01 9.3l-4.095 4.812s-5.263-4.652-9.835.856" transform="translate(-1.792 -3.982)"/>
            <g id="그룹_125" data-name="그룹 125" transform="translate(4.453 1.678)">
                <path id="패스_207" data-name="패스 207" class="cls-3" d="M.948 8.269c-.1-.1-.2-.192-.3-.289l.225-.35" transform="translate(-.107 -1.26)"/>
                <path id="선_89" data-name="선 89" transform="translate(.944 5.534)" style="stroke-dasharray:.008 .393 .397 0;stroke-miterlimit:10;fill:none;stroke:#333" d="M0 .56.361 0"/>
                <path id="패스_208" data-name="패스 208" class="cls-3" d="m1.564 6.56.225-.351a4 4 0 0 0 .4.114" transform="translate(-.258 -1.026)"/>
                <path id="패스_209" data-name="패스 209" d="M3.449 6.514A7.349 7.349 0 0 0 5.4 6.431" transform="translate(-.57 -1.062)" style="stroke-dasharray:.023 1.155 1.166 0;stroke-miterlimit:10;fill:none;stroke:#333"/>
                <path id="패스_210" data-name="패스 210" d="M5.784 5.524C7.6 5.2 9.877 4.083 11.791.947" transform="translate(-.955 -.156)" style="stroke-dasharray:1.166 1.155 .023 1.155 1.166 0;stroke-miterlimit:10;fill:none;stroke:#333"/>
                <path id="패스_211" data-name="패스 211" class="cls-3" d="M12.986.865Q13.092.689 13.2.5l.417.008" transform="translate(-2.145 -.083)"/>
                <path id="선_90" data-name="선 90" transform="translate(12.04 .441)" style="stroke-dasharray:.014 .682 .689 0;stroke-miterlimit:10;fill:none;stroke:#333" d="m0 0 1.156.023"/>
                <path id="패스_212" data-name="패스 212" class="cls-3" d="m15.807.555.417.008s.065.136.2.362" transform="translate(-2.611 -.092)"/>
                <path id="패스_213" data-name="패스 213" d="M17.019 1.714a9.924 9.924 0 0 0 .931 1.114" transform="translate(-2.811 -.283)" style="stroke-dasharray:.017 .857 .866 0;stroke-miterlimit:10;fill:none;stroke:#333"/>
                <path id="패스_214" data-name="패스 214" d="M18.134 3.048a8.944 8.944 0 0 0 7.912 2.658" transform="translate(-2.996 -.503)" style="stroke-dasharray:.866 .857 .017 .857 .866 0;stroke-miterlimit:10;fill:none;stroke:#333"/>
                <path id="패스_215" data-name="패스 215" class="cls-3" d="M27.62 6.219c.136-.018.274-.039.412-.063l.218.356" transform="translate(-4.563 -1.017)"/>
                <path id="선_91" data-name="선 91" transform="translate(23.832 5.733)" style="stroke-dasharray:.007 .333 .337 0;stroke-miterlimit:10;fill:none;stroke:#333" d="m0 0 .294.482"/>
                <path id="패스_216" data-name="패스 216" class="cls-3" d="m28.881 7.445.219.355s-.118.089-.318.264" transform="translate(-4.754 -1.23)"/>
                <path id="패스_217" data-name="패스 217" d="M27.874 8.838a14.792 14.792 0 0 0-1.074 1.2" transform="translate(-4.427 -1.46)" style="stroke-dasharray:.019 .952 .962 0;stroke-miterlimit:10;fill:none;stroke:#333"/>
                <path id="패스_218" data-name="패스 218" d="M26.208 10.276a13.464 13.464 0 0 0-2.988 7.267 10.389 10.389 0 0 0 2.956 7.3" transform="translate(-3.835 -1.697)" style="stroke-dasharray:.962 .952 .019 .952 .962 0;stroke-miterlimit:10;fill:none;stroke:#333"/>
                <path id="패스_219" data-name="패스 219" class="cls-3" d="M26.77 27.73q.15.144.311.284l-.3.295" transform="translate(-4.422 -4.581)"/>
                <path id="선_92" data-name="선 92" transform="translate(21.589 23.984)" style="stroke-dasharray:.009 .432 .437 0;stroke-miterlimit:10;fill:none;stroke:#333" d="M.518 0 0 .518"/>
                <path id="패스_220" data-name="패스 220" class="cls-3" d="m25.725 29.35-.3.3s-.141-.057-.39-.14" transform="translate(-4.136 -4.848)"/>
                <path id="패스_221" data-name="패스 221" d="M23.837 29.2a14.4 14.4 0 0 0-1.552-.336" transform="translate(-3.681 -4.768)" style="stroke-dasharray:.019 .937 .946 0;stroke-miterlimit:10;fill:none;stroke:#333"/>
                <path id="패스_222" data-name="패스 222" d="M21.106 28.834c-1.878-.3-4.331-.273-5.961 1.3" transform="translate(-2.502 -4.739)" style="stroke-dasharray:.946 .937 .019 .937 .946 0;stroke-miterlimit:10;fill:none;stroke:#333"/>
                <path id="패스_223" data-name="패스 223" class="cls-3" d="M15.024 30.422q-.149.144-.288.3s-.113-.1-.32-.264" transform="translate(-2.381 -5.025)"/>
                <path id="패스_224" data-name="패스 224" d="M13.362 29.781a8.962 8.962 0 0 0-1.42-.74" transform="translate(-1.973 -4.797)" style="stroke-dasharray:.019 .946 .955 0;stroke-miterlimit:10;fill:none;stroke:#333"/>
                <path id="패스_225" data-name="패스 225" d="M10.74 28.933a6.145 6.145 0 0 0-6.075.583" transform="translate(-.771 -4.69)" style="stroke-dasharray:.955 .946 .019 .946 .955 0;stroke-miterlimit:10;fill:none;stroke:#333"/>
                <path id="패스_226" data-name="패스 226" class="cls-3" d="M4.537 29.729a6.703 6.703 0 0 0-.336.247l-.279-.311" transform="translate(-.648 -4.9)"/>
                <path id="선_93" data-name="선 93" transform="translate(2.405 23.794)" style="stroke-dasharray:.01 .515 .52 0;stroke-miterlimit:10;fill:none;stroke:#333" d="M.583.65 0 0"/>
                <path id="패스_227" data-name="패스 227" class="cls-3" d="m2.826 28.38-.278-.311s.107-.105.281-.3" transform="translate(-.421 -4.586)"/>
                <path id="패스_228" data-name="패스 228" d="M3.48 26.782a13.083 13.083 0 0 0 .891-1.315" transform="translate(-.575 -4.207)" style="stroke-dasharray:.019 .937 .947 0;stroke-miterlimit:10;fill:none;stroke:#333"/>
                <path id="패스_229" data-name="패스 229" d="M3.963 22.647a9.939 9.939 0 0 0 1.452-5.639c.01.072-.013-.173-.047-.42 0 0 0-3.935-4.358-8.19" transform="translate(-.167 -1.387)" style="stroke-dasharray:.947 .937 .019 .937 .947 0;stroke-miterlimit:10;fill:none;stroke:#333"/>
            </g>
        </g>
    </g>
</svg>
