<svg xmlns="http://www.w3.org/2000/svg" width="51" height="51" viewBox="0 0 51 51">
    <defs>
        <style>
            .cls-2{fill:none;stroke:#262626;stroke-linecap:round;stroke-linejoin:round;stroke-width:1.5px}
        </style>
    </defs>
    <g id="ico_op_venti_on" transform="translate(10 11)">
        <path id="패스_173" data-name="패스 173" class="cls-2" d="M2.064 30.942s-3.245-1.782.464-5.336c3.619-3.469 9.271-.742 11.291-.68 2.157.066 3.379.577 3.708-2.226S16.784 9.846 24.2 9.269c0 0 3.256-.443 2.267 2.359s-5.273 17.1-5.273 17.1-.453 2.215-4.492 2.215z"/>
        <path id="패스_174" data-name="패스 174" class="cls-2" d="m23.4 5.847 4.327 1.607 2.132-3.369S30.691-.087 25.962.9A6.017 6.017 0 0 0 23.4 5.847z"/>
        <path id="패스_175" data-name="패스 175" class="cls-2" d="M7.172 14.8a2.616 2.616 0 0 1-2.715 2.5 2.617 2.617 0 0 1-2.714-2.5z"/>
        <path id="패스_176" data-name="패스 176" class="cls-2" d="M7.172 12.177a2.616 2.616 0 0 1-2.506-2.714 2.616 2.616 0 0 1 2.506-2.715z"/>
        <path id="패스_177" data-name="패스 177" class="cls-2" d="M9.692 14.8a2.616 2.616 0 0 1 2.508 2.71 2.617 2.617 0 0 1-2.506 2.715z"/>
        <path id="패스_178" data-name="패스 178" class="cls-2" d="M9.692 12.177a2.616 2.616 0 0 1 2.714-2.506 2.617 2.617 0 0 1 2.715 2.506z"/>
    </g>
</svg>
