<svg xmlns="http://www.w3.org/2000/svg" width="39" height="39" viewBox="0 0 39 39">
    <defs>
        <style>
            .cls-1 {
                fill: none;
                stroke: #444;
                stroke-linecap: round;
                stroke-linejoin: round;
                stroke-width: 1.6px
            }
        </style>
    </defs>
    <g id="ico_inq_sch_on" transform="translate(6 5)">
        <g id="그룹_48" data-name="그룹 48" transform="translate(-1 1)">
            <path id="선_12" data-name="선 12" class="cls-1" transform="translate(19.136 .5)" d="M0 0v2.761" />
            <path id="선_13" data-name="선 13" class="cls-1" transform="translate(6.358 .5)" d="M0 0v2.761" />
            <path id="선_14" data-name="선 14" class="cls-1" transform="translate(.5 9.287)" d="M0 0h24.696" />
            <path id="패스_64" data-name="패스 64" class="cls-1"
                d="M25.2 11.438V6.326a4.438 4.438 0 0 0-4.435-4.446H4.931A4.438 4.438 0 0 0 .5 6.326v13.34a4.438 4.438 0 0 0 4.431 4.446h6.975" />
            <path id="패스_65" data-name="패스 65" class="cls-1"
                d="M21.072 19.414a.219.219 0 1 1-.31 0 .218.218 0 0 1 .31 0" transform="translate(1.252 1.17)" />
            <path id="패스_66" data-name="패스 66" class="cls-1"
                d="M24.184 19.414a.219.219 0 1 1-.31 0 .218.218 0 0 1 .31 0" transform="translate(1.609 1.17)" />
            <path id="패스_67" data-name="패스 67" class="cls-1"
                d="M17.958 19.414a.219.219 0 1 1-.31 0 .218.218 0 0 1 .31 0" transform="translate(1.059 1.17)" />
            <path id="패스_68" data-name="패스 68" class="cls-1"
                d="M15.246 22.488a5.758 5.758 0 0 1-.8-2.919 6.1 6.1 0 0 1 6.221-5.975 6.1 6.1 0 0 1 6.22 5.975 6.1 6.1 0 0 1-6.22 5.976 6.376 6.376 0 0 1-3.038-.765l-3.183.765z"
                transform="translate(1.609 1.527)" />
        </g>
    </g>
</svg>